# xmcd
#
# Track frame offsets:
#	150
#	15097
#	36362
#	51330
#	65462
#	75840
#	96415
#	113215
#	125462
#	139332
#
# Disc length: 2098
#
# Revision: 2
# Processed by: cddbd v1.5.1PL0 Copyright (c) Steve Scherf et al.
# Submitted via: MusiCat 1.1
# Normalized: r1:DSETVAR1,TDELIM( - )
#
DISCID=7f08300a
DTITLE=Various Artist - Sanctuary Blues Sampler
DYEAR=1900
DGENRE=
TTITLE0=Snooky Pryor - Shake Your Boogie
TTITLE1=Sonny Terry and Brownie McGhee - Just a Dream
TTITLE2=John Lee Hooker with the Groundhogs - Don't Be Messin' With My Bread
TTITLE3=T-Bone Walker - Why Don't My Baby Treat Me Right
TTITLE4=Little Mac - Mother in Law
TTITLE5=Charlie Musselwhite - Key to the Highway
TTITLE6=Eddie 'Playboy' Taylor - I'm a Country Boy
TTITLE7=Big Bill Broonzy - It Feels So Good
TTITLE8=Lowell Fulson - Step at a Time
TTITLE9=Jimmy Witherspoon - The Blues, The Whole Blues and Nothing But the Blues
EXTD=\n\n
EXTT0=
EXTT1=
EXTT2=
EXTT3=
EXTT4=
EXTT5=
EXTT6=
EXTT7=
EXTT8=
EXTT9=
PLAYORDER=
